<?xml version="1.0" encoding="UTF-8"?>
<svg width="24px" height="24px" viewBox="0 0 24 24" version="1.1" xmlns="http://www.w3.org/2000/svg" xmlns:xlink="http://www.w3.org/1999/xlink">
    <title>切片</title>
    <g id="页面-1" stroke="none" stroke-width="1" fill="none" fill-rule="evenodd">
        <g id="首页" transform="translate(-968.000000, -4512.000000)" fill="#00FF1A">
            <g id="编组" transform="translate(0.000000, 4284.000000)">
                <g id="home_logo_youtube备份" transform="translate(968.000000, 228.000000)">
                    <g id="icons/Email/Filled" transform="translate(6.000000, 7.000000)">
                        <path d="M1.63636364,0 C0.732627273,0 0,0.746194444 0,1.66666667 L0,8.33333333 C0,9.25383333 0.732627273,10 1.63636364,10 L10.3636364,10 C11.2674,10 12,9.25383333 12,8.33333333 L12,1.66666667 C12,0.746194444 11.2674,0 10.3636364,0 L1.63636364,0 Z M3.07647818,2.351 C2.84505273,2.15457778 2.50111091,2.18642222 2.30825455,2.42213333 C2.11540364,2.65784444 2.14666909,3.00815556 2.37809455,3.20458333 L4.95243818,5.38959444 C5.55927273,5.90466667 6.44072727,5.90466667 7.0476,5.38959444 L9.62192727,3.20458333 C9.85336364,3.00815556 9.88461818,2.65784444 9.69174545,2.42213333 C9.49892727,2.18642222 9.15496364,2.15457778 8.92352727,2.351 L6.3492,4.53601667 C6.14694545,4.70770556 5.85310909,4.70770556 5.6508,4.53601667 L3.07647818,2.351 Z" id="Shape"></path>
                    </g>
                </g>
            </g>
        </g>
    </g>
</svg>